<svg width="113" height="40" viewBox="0 0 113 40" fill="none" xmlns="http://www.w3.org/2000/svg">
<path d="M30 37H21.8691L26.832 29.5547L30 25.1201V37Z" stroke="#8AE8C6" stroke-width="2"/>
<mask id="path-2-inside-1_1686_10212" fill="white">
<path d="M24.6719 2C25.2022 2.00008 25.7109 2.21094 26.0859 2.58594L30.4141 6.91406C30.7891 7.28906 30.9999 7.7978 31 8.32812V19.8799C31 20.2835 30.8776 20.6778 30.6494 21.0107L19.5957 37.1309C19.2228 37.6747 18.6057 38 17.9463 38H8.32812C7.7978 37.9999 7.28906 37.7891 6.91406 37.4141L2.58594 33.0859C2.21094 32.7109 2.00008 32.2022 2 31.6719V9.82812C2.00008 9.2978 2.21094 8.78906 2.58594 8.41406L8.41406 2.58594C8.78906 2.21094 9.2978 2.00008 9.82812 2H24.6719ZM12 15C10.8954 15 10 15.8954 10 17V25H21C22.1046 25 23 24.1046 23 23V15H12Z"/>
</mask>
<path d="M24.6719 2L24.6722 0H24.6719V2ZM26.0859 2.58594L24.6717 4.00015L26.0859 2.58594ZM30.4141 6.91406L31.8283 5.49985L30.4141 6.91406ZM31 8.32812L33 8.32812L33 8.32782L31 8.32812ZM30.6494 21.0107L32.2989 22.1418L32.2991 22.1415L30.6494 21.0107ZM19.5957 37.1309L21.2452 38.2619L21.2452 38.2619L19.5957 37.1309ZM8.32812 38L8.32782 40H8.32812V38ZM6.91406 37.4141L5.49985 38.8283L6.91406 37.4141ZM2.58594 33.0859L4.00015 31.6717L2.58594 33.0859ZM2 31.6719L-2.2751e-08 31.6719L2.2751e-08 31.6722L2 31.6719ZM2 9.82812L0 9.82782V9.82812H2ZM9.82812 2L9.82812 -2.27533e-08L9.82782 2.27533e-08L9.82812 2ZM12 15L12 13L12 13L12 15ZM10 25H8V27H10V25ZM21 25L21 27L21 27L21 25ZM23 15H25V13H23V15ZM24.6719 2L24.6716 4L24.6717 4.00015L26.0859 2.58594L27.5002 1.17172C26.7503 0.421881 25.7331 0.000160308 24.6722 2.28275e-08L24.6719 2ZM26.0859 2.58594L24.6717 4.00015L28.9998 8.32828L30.4141 6.91406L31.8283 5.49985L27.5002 1.17172L26.0859 2.58594ZM30.4141 6.91406L28.9998 8.32828L29 8.32843L31 8.32812L33 8.32782C32.9998 7.26695 32.5781 6.24969 31.8283 5.49985L30.4141 6.91406ZM31 8.32812H29V19.8799H31H33V8.32812H31ZM31 19.8799H29L28.9998 19.88L30.6494 21.0107L32.2991 22.1415C32.7551 21.4762 33 20.6879 33 19.8799H31ZM30.6494 21.0107L29 19.8797L17.9462 35.9998L19.5957 37.1309L21.2452 38.2619L32.2989 22.1418L30.6494 21.0107ZM19.5957 37.1309L17.9462 35.9998L17.9463 36V38V40C19.2657 40 20.4995 39.3493 21.2452 38.2619L19.5957 37.1309ZM17.9463 38V36H8.32812V38V40H17.9463V38ZM8.32812 38L8.32843 36L8.32828 35.9998L6.91406 37.4141L5.49985 38.8283C6.24969 39.5781 7.26695 39.9998 8.32782 40L8.32812 38ZM6.91406 37.4141L8.32828 35.9998L4.00015 31.6717L2.58594 33.0859L1.17172 34.5002L5.49985 38.8283L6.91406 37.4141ZM2.58594 33.0859L4.00015 31.6717L4 31.6716L2 31.6719L2.2751e-08 31.6722C0.000160039 32.7331 0.421881 33.7503 1.17172 34.5002L2.58594 33.0859ZM2 31.6719H4V9.82812H2H0V31.6719H2ZM2 9.82812L4 9.82843L4.00015 9.82828L2.58594 8.41406L1.17172 6.99985C0.421881 7.74969 0.000159992 8.76695 2.27376e-08 9.82782L2 9.82812ZM2.58594 8.41406L4.00015 9.82828L9.82828 4.00015L8.41406 2.58594L6.99985 1.17172L1.17172 6.99985L2.58594 8.41406ZM8.41406 2.58594L9.82828 4.00015L9.82843 4L9.82812 2L9.82782 2.27533e-08C8.76695 0.000160047 7.74969 0.421881 6.99985 1.17172L8.41406 2.58594ZM9.82812 2V4H24.6719V2V0H9.82812V2ZM12 15L12 13C9.79086 13 8 14.7909 8 17H10H12H12L12 15ZM10 17H8V25H10H12V17H10ZM10 25V27H21V25V23H10V25ZM21 25L21 27C23.2091 27 25 25.2091 25 23H23H21H21L21 25ZM23 23H25V15H23H21V23H23ZM23 15V13H12V15V17H23V15Z" fill="#09B6C2" mask="url(#path-2-inside-1_1686_10212)"/>
<path d="M33.66 28V14H38.6C39.56 14 40.4067 14.1933 41.14 14.58C41.8733 14.9667 42.4467 15.5067 42.86 16.2C43.2733 16.88 43.48 17.6733 43.48 18.58C43.48 19.46 43.2867 20.2467 42.9 20.94C42.5133 21.6333 41.9733 22.18 41.28 22.58C40.6 22.9667 39.8067 23.16 38.9 23.16H35.98V28H33.66ZM35.98 21.02H38.86C39.5267 21.02 40.0733 20.7933 40.5 20.34C40.9267 19.8867 41.14 19.3 41.14 18.58C41.14 17.8467 40.9 17.2533 40.42 16.8C39.94 16.3467 39.32 16.12 38.56 16.12H35.98V21.02ZM49.1197 28.24C48.1197 28.24 47.2264 28.02 46.4397 27.58C45.6664 27.1267 45.0597 26.5067 44.6197 25.72C44.1797 24.9333 43.9597 24.0267 43.9597 23C43.9597 21.9733 44.173 21.0667 44.5997 20.28C45.0397 19.4933 45.6464 18.88 46.4197 18.44C47.193 17.9867 48.0797 17.76 49.0797 17.76C50.0797 17.76 50.9664 17.9867 51.7397 18.44C52.513 18.88 53.113 19.4933 53.5397 20.28C53.9797 21.0667 54.1997 21.9733 54.1997 23C54.1997 24.0267 53.9864 24.9333 53.5597 25.72C53.133 26.5067 52.533 27.1267 51.7597 27.58C50.9864 28.02 50.1064 28.24 49.1197 28.24ZM49.1197 26.18C49.6664 26.18 50.153 26.0467 50.5797 25.78C51.0064 25.5 51.3397 25.1267 51.5797 24.66C51.8197 24.18 51.9397 23.6267 51.9397 23C51.9397 22.3733 51.813 21.8267 51.5597 21.36C51.3197 20.88 50.9864 20.5067 50.5597 20.24C50.133 19.96 49.6397 19.82 49.0797 19.82C48.5197 19.82 48.0264 19.9533 47.5997 20.22C47.173 20.4867 46.8397 20.86 46.5997 21.34C46.3597 21.82 46.2397 22.3733 46.2397 23C46.2397 23.6267 46.3597 24.18 46.5997 24.66C46.853 25.1267 47.193 25.5 47.6197 25.78C48.0597 26.0467 48.5597 26.18 49.1197 26.18ZM57.2208 22.68C57.2208 21.6 57.4274 20.7133 57.8408 20.02C58.2541 19.3267 58.7874 18.8133 59.4408 18.48C60.1074 18.1333 60.8008 17.96 61.5208 17.96V20.1C60.9074 20.1 60.3274 20.1867 59.7808 20.36C59.2474 20.52 58.8141 20.7867 58.4808 21.16C58.1474 21.5333 57.9808 22.0267 57.9808 22.64L57.2208 22.68ZM55.7408 28V18H57.9808V28H55.7408ZM66.5864 28.24C65.5331 28.24 64.7264 27.98 64.1664 27.46C63.6197 26.9267 63.3464 26.1667 63.3464 25.18V14.88H65.5664V24.76C65.5664 25.2267 65.6731 25.58 65.8864 25.82C66.1131 26.06 66.4397 26.18 66.8664 26.18C66.9997 26.18 67.1464 26.1533 67.3064 26.1C67.4664 26.0467 67.6464 25.9467 67.8464 25.8L68.6664 27.5C68.3197 27.74 67.9731 27.92 67.6264 28.04C67.2797 28.1733 66.9331 28.24 66.5864 28.24ZM61.6864 19.92V18H68.2664V19.92H61.6864ZM71.058 28V16.94C71.058 15.8867 71.318 15.08 71.838 14.52C72.3713 13.9467 73.1713 13.66 74.238 13.66C74.5846 13.66 74.9513 13.72 75.338 13.84C75.738 13.9467 76.118 14.0933 76.478 14.28L75.658 15.94C75.4046 15.82 75.178 15.7333 74.978 15.68C74.7913 15.6267 74.6246 15.6 74.478 15.6C74.078 15.6 73.778 15.7333 73.578 16C73.3913 16.2533 73.298 16.6733 73.298 17.26V28H71.058ZM69.338 19.84V18H75.918V19.84H69.338ZM81.758 28.24C80.758 28.24 79.8646 28.02 79.078 27.58C78.3046 27.1267 77.698 26.5067 77.258 25.72C76.818 24.9333 76.598 24.0267 76.598 23C76.598 21.9733 76.8113 21.0667 77.238 20.28C77.678 19.4933 78.2846 18.88 79.058 18.44C79.8313 17.9867 80.718 17.76 81.718 17.76C82.718 17.76 83.6046 17.9867 84.378 18.44C85.1513 18.88 85.7513 19.4933 86.178 20.28C86.618 21.0667 86.838 21.9733 86.838 23C86.838 24.0267 86.6246 24.9333 86.198 25.72C85.7713 26.5067 85.1713 27.1267 84.398 27.58C83.6246 28.02 82.7446 28.24 81.758 28.24ZM81.758 26.18C82.3046 26.18 82.7913 26.0467 83.218 25.78C83.6446 25.5 83.978 25.1267 84.218 24.66C84.458 24.18 84.578 23.6267 84.578 23C84.578 22.3733 84.4513 21.8267 84.198 21.36C83.958 20.88 83.6246 20.5067 83.198 20.24C82.7713 19.96 82.278 19.82 81.718 19.82C81.158 19.82 80.6646 19.9533 80.238 20.22C79.8113 20.4867 79.478 20.86 79.238 21.34C78.998 21.82 78.878 22.3733 78.878 23C78.878 23.6267 78.998 24.18 79.238 24.66C79.4913 25.1267 79.8313 25.5 80.258 25.78C80.698 26.0467 81.198 26.18 81.758 26.18ZM88.3791 28V14H90.6191V28H88.3791ZM92.8456 28V18H95.0656V28H92.8456ZM93.9656 16.1C93.6056 16.1 93.2923 15.9733 93.0256 15.72C92.7723 15.4533 92.6456 15.14 92.6456 14.78C92.6456 14.42 92.7723 14.1133 93.0256 13.86C93.2923 13.6067 93.6056 13.48 93.9656 13.48C94.3256 13.48 94.6323 13.6067 94.8856 13.86C95.1523 14.1133 95.2856 14.42 95.2856 14.78C95.2856 15.14 95.1523 15.4533 94.8856 15.72C94.6323 15.9733 94.3256 16.1 93.9656 16.1ZM101.906 28.24C100.906 28.24 100.012 28.02 99.2256 27.58C98.4523 27.1267 97.8456 26.5067 97.4056 25.72C96.9656 24.9333 96.7456 24.0267 96.7456 23C96.7456 21.9733 96.959 21.0667 97.3856 20.28C97.8256 19.4933 98.4323 18.88 99.2056 18.44C99.979 17.9867 100.866 17.76 101.866 17.76C102.866 17.76 103.752 17.9867 104.526 18.44C105.299 18.88 105.899 19.4933 106.326 20.28C106.766 21.0667 106.986 21.9733 106.986 23C106.986 24.0267 106.772 24.9333 106.346 25.72C105.919 26.5067 105.319 27.1267 104.546 27.58C103.772 28.02 102.892 28.24 101.906 28.24ZM101.906 26.18C102.452 26.18 102.939 26.0467 103.366 25.78C103.792 25.5 104.126 25.1267 104.366 24.66C104.606 24.18 104.726 23.6267 104.726 23C104.726 22.3733 104.599 21.8267 104.346 21.36C104.106 20.88 103.772 20.5067 103.346 20.24C102.919 19.96 102.426 19.82 101.866 19.82C101.306 19.82 100.812 19.9533 100.386 20.22C99.959 20.4867 99.6256 20.86 99.3856 21.34C99.1456 21.82 99.0256 22.3733 99.0256 23C99.0256 23.6267 99.1456 24.18 99.3856 24.66C99.639 25.1267 99.979 25.5 100.406 25.78C100.846 26.0467 101.346 26.18 101.906 26.18Z" fill="url(#paint0_linear_1686_10212)"/>
<defs>
<linearGradient id="paint0_linear_1686_10212" x1="34" y1="26" x2="107" y2="11.5" gradientUnits="userSpaceOnUse">
<stop offset="0.112493" stop-color="#8AE8C6"/>
<stop offset="0.628082" stop-color="#09B6C2"/>
</linearGradient>
</defs>
</svg>
